<svg width="201" height="59" viewBox="0 0 201 59" fill="none" xmlns="http://www.w3.org/2000/svg">
<path d="M196.133 0.819443H4.10204C2.28964 0.819443 0.820408 2.28695 0.820408 4.09722V54.9028C0.820408 56.713 2.28964 58.1806 4.10204 58.1806H196.133C197.946 58.1806 199.415 56.713 199.415 54.9028V4.09722C199.415 2.28695 197.946 0.819443 196.133 0.819443Z" stroke="black" stroke-width="2"/>
<path d="M47.4237 28.1211C47.3857 23.5837 51.1447 21.372 51.3196 21.2732C49.189 18.1722 45.8867 17.7466 44.7224 17.7162C41.9451 17.4274 39.259 19.3731 37.8437 19.3731C36.4055 19.3731 34.2292 17.7466 31.878 17.7923C28.8571 17.8378 26.0341 19.5859 24.4894 22.2917C21.2935 27.8171 23.6753 35.9342 26.7418 40.4032C28.2712 42.5921 30.0594 45.0318 32.4031 44.9482C34.6934 44.857 35.5533 43.4889 38.3154 43.4889C41.0548 43.4889 41.8613 44.9482 44.2507 44.895C46.7085 44.857 48.2608 42.6985 49.7369 40.4944C51.5099 37.9863 52.2176 35.5162 52.248 35.3946C52.1871 35.3566 47.4694 33.5553 47.4237 28.1211ZM42.9114 14.7749C44.1441 13.2321 44.9887 11.142 44.7529 9.01389C42.9723 9.08985 40.7352 10.2451 39.4568 11.75C38.3231 13.0801 37.3034 15.2537 37.5698 17.2982C39.5634 17.4426 41.6255 16.2874 42.9114 14.7749Z" fill="black"/>
<path d="M80.615 44.6214H77.4116L75.6539 39.1187H69.5588L67.8848 44.6214H64.765L70.8067 25.879H74.5352L80.615 44.6214ZM75.1288 36.8082L73.5384 31.9137C73.3711 31.412 73.0514 30.234 72.5949 28.3795H72.5416C72.359 29.1775 72.0546 30.3556 71.6513 31.9137L70.0915 36.8082H75.1288ZM96.1231 37.6975C96.1231 39.9928 95.4988 41.8093 94.251 43.1469C93.1319 44.3326 91.7397 44.9254 90.0808 44.9254C88.285 44.9254 86.9994 44.287 86.2159 43.0101V50.1012H83.2099V35.5466C83.2099 34.1026 83.1722 32.6204 83.0959 31.108H85.7433L85.9115 33.2513H85.964C86.969 31.6401 88.4909 30.8268 90.5296 30.8268C92.1277 30.8268 93.4593 31.4577 94.525 32.7193C95.5899 33.981 96.1231 35.6454 96.1231 37.6975ZM93.0638 37.8115C93.0638 36.4967 92.7668 35.4098 92.1737 34.5586C91.5264 33.6693 90.6518 33.2285 89.5558 33.2285C88.8182 33.2285 88.1406 33.4793 87.5392 33.9657C86.9387 34.4598 86.5424 35.1058 86.3603 35.8962C86.2766 36.1926 86.2306 36.5042 86.2233 36.8082V39.0655C86.2233 40.046 86.5276 40.8744 87.129 41.5584C87.7295 42.2349 88.5138 42.5769 89.4795 42.5769C90.6133 42.5769 91.496 42.1361 92.1277 41.2697C92.7439 40.388 93.0638 39.2403 93.0638 37.8115ZM111.691 37.6975C111.691 39.9928 111.068 41.8093 109.819 43.1469C108.701 44.3326 107.309 44.9254 105.65 44.9254C103.854 44.9254 102.567 44.287 101.784 43.0101V50.1012H98.778V35.5466C98.778 34.1026 98.7402 32.6204 98.6639 31.108H101.312L101.48 33.2513H101.533C102.537 31.6401 104.059 30.8268 106.098 30.8268C107.697 30.8268 109.028 31.4577 110.093 32.7193C111.151 33.981 111.691 35.6454 111.691 37.6975ZM108.625 37.8115C108.625 36.4967 108.328 35.4098 107.734 34.5586C107.088 33.6693 106.213 33.2285 105.117 33.2285C104.379 33.2285 103.701 33.4793 103.092 33.9657C102.492 34.4598 102.096 35.1058 101.914 35.8962C101.822 36.2686 101.769 36.5726 101.769 36.8082V39.0655C101.769 40.046 102.074 40.8744 102.674 41.5584C103.275 42.2349 104.059 42.5769 105.034 42.5769C106.167 42.5769 107.049 42.1361 107.681 41.2697C108.313 40.388 108.625 39.2403 108.625 37.8115ZM129.094 39.3696C129.094 40.9657 128.538 42.2653 127.427 43.2609C126.21 44.3554 124.498 44.9026 122.314 44.9026C120.297 44.9026 118.677 44.515 117.451 43.7321L118.144 41.2317C119.46 42.0145 120.913 42.4021 122.489 42.4021C123.622 42.4021 124.505 42.1437 125.137 41.6344C125.769 41.1252 126.088 40.4412 126.088 39.59C126.088 38.8299 125.822 38.1915 125.304 37.6671C124.787 37.1502 123.927 36.6638 122.717 36.223C119.43 34.9994 117.786 33.2057 117.786 30.8572C117.786 29.3219 118.364 28.0603 119.529 27.0799C120.685 26.0994 122.223 25.6054 124.14 25.6054C125.845 25.6054 127.267 25.9018 128.401 26.4946L127.648 28.942C126.582 28.3643 125.388 28.0831 124.041 28.0831C122.983 28.0831 122.146 28.3415 121.552 28.8583C121.05 29.3219 120.799 29.8844 120.799 30.5532C120.799 31.2904 121.089 31.9061 121.667 32.3849C122.169 32.8257 123.074 33.3121 124.391 33.829C126.004 34.4825 127.191 35.235 127.953 36.1091C128.713 36.9831 129.094 38.0699 129.094 39.3696ZM139.062 33.3653H135.744V39.9244C135.744 41.5965 136.33 42.4248 137.502 42.4248C138.042 42.4248 138.483 42.3793 138.841 42.2881L138.925 44.5682C138.331 44.7886 137.555 44.9026 136.589 44.9026C135.402 44.9026 134.473 44.5378 133.804 43.8158C133.134 43.0937 132.799 41.8776 132.799 40.1752V33.3653H130.829V31.1156H132.799V28.6379L135.752 27.7487V31.1156H139.069L139.062 33.3653ZM153.983 37.7583C153.983 39.8332 153.39 41.5433 152.203 42.8733C150.962 44.2489 149.312 44.933 147.249 44.933C145.263 44.933 143.681 44.2718 142.501 42.9645C141.322 41.6497 140.736 39.9852 140.736 37.9863C140.736 35.8886 141.345 34.1785 142.562 32.8409C143.78 31.5032 145.416 30.842 147.477 30.842C149.464 30.842 151.062 31.5032 152.264 32.8181C153.405 34.0873 153.983 35.7366 153.983 37.7583ZM150.864 37.8267C150.864 36.5879 150.597 35.5238 150.057 34.6422C149.426 33.5705 148.528 33.0309 147.356 33.0309C146.153 33.0309 145.225 33.5705 144.601 34.6422C144.061 35.5314 143.795 36.6106 143.795 37.8875C143.795 39.1263 144.061 40.1904 144.601 41.0796C145.248 42.1512 146.161 42.6909 147.333 42.6909C148.482 42.6909 149.38 42.1437 150.035 41.0569C150.59 40.1372 150.864 39.0655 150.864 37.8267ZM163.762 33.7529C163.449 33.6997 163.13 33.6693 162.81 33.6693C161.752 33.6693 160.939 34.0645 160.36 34.8626C159.858 35.5694 159.607 36.4586 159.607 37.5303V44.6214H156.601V35.3642C156.601 33.9429 156.578 32.5292 156.517 31.108H159.135L159.241 33.6921H159.325C159.645 32.8028 160.14 32.0885 160.832 31.5489C161.456 31.0776 162.224 30.8268 163.008 30.8268C163.29 30.8268 163.533 30.8496 163.762 30.88V33.7529ZM177.207 37.2263C177.215 37.6823 177.176 38.1383 177.101 38.5867H168.076C168.107 39.9244 168.548 40.9428 169.385 41.6497C170.145 42.2805 171.127 42.5921 172.337 42.5921C173.676 42.5921 174.894 42.3793 175.99 41.9537L176.462 44.0361C175.183 44.591 173.669 44.8722 171.926 44.8722C169.826 44.8722 168.182 44.2566 166.98 43.0253C165.786 41.794 165.184 40.1372 165.184 38.0623C165.184 36.0254 165.74 34.3305 166.859 32.9777C168.023 31.5336 169.605 30.8116 171.592 30.8116C173.539 30.8116 175.015 31.5336 176.02 32.9777C176.804 34.1254 177.207 35.539 177.207 37.2263ZM174.338 36.451C174.361 35.5618 174.164 34.7942 173.753 34.1405C173.235 33.3045 172.428 32.8865 171.355 32.8865C170.374 32.8865 169.575 33.2969 168.958 34.1101C168.456 34.7562 168.16 35.539 168.068 36.4435L174.338 36.451Z" fill="black"/>
<path d="M68.6914 19.2592C67.8544 19.2592 67.1315 19.2211 66.5303 19.1527V10.0856C67.375 9.95634 68.2273 9.88792 69.0795 9.89554C72.5265 9.89554 74.1168 11.5904 74.1168 14.3493C74.1092 17.5338 72.2373 19.2592 68.6914 19.2592ZM69.2012 11.0584C68.7371 11.0584 68.3414 11.0888 68.0142 11.1572V18.0431C68.1892 18.0735 68.5316 18.081 69.011 18.081C71.2709 18.081 72.5569 16.7967 72.5569 14.3949C72.5493 12.2441 71.3851 11.0584 69.2012 11.0584ZM79.0628 19.3275C77.1225 19.3275 75.8593 17.8759 75.8593 15.9074C75.8593 13.8553 77.1453 12.3961 79.1694 12.3961C81.0868 12.3961 82.3731 13.7793 82.3731 15.8009C82.3731 17.8759 81.0489 19.3275 79.0628 19.3275ZM79.116 13.4753C78.0507 13.4753 77.366 14.4709 77.366 15.8694C77.366 17.2374 78.066 18.2331 79.1009 18.2331C80.1434 18.2331 80.8358 17.169 80.8358 15.839C80.8433 14.4861 80.1585 13.4753 79.116 13.4753ZM93.4519 12.5328L91.3746 19.1755H90.0201L89.1603 16.295C88.947 15.5881 88.7649 14.8737 88.6279 14.1517H88.5975C88.4909 14.8737 88.2849 15.6034 88.0642 16.295L87.1511 19.1755H85.7819L83.826 12.5328H85.3479L86.101 15.687C86.2766 16.4394 86.4284 17.1462 86.5506 17.8227H86.5809C86.6876 17.2602 86.8697 16.5686 87.129 15.7022L88.0724 12.5328H89.2743L90.1801 15.6338C90.4008 16.3862 90.5755 17.1234 90.7125 17.8227H90.7503C90.8495 17.1386 90.9939 16.4166 91.1998 15.6338L92.0063 12.5328H93.4519ZM101.114 19.1755H99.6386V15.3602C99.6386 14.1821 99.189 13.5969 98.2988 13.5969C97.4243 13.5969 96.8229 14.3493 96.8229 15.2233V19.1755H95.347V14.4329C95.347 13.8477 95.3314 13.2169 95.2937 12.5328H96.5948L96.6629 13.5589H96.7007C97.0969 12.8521 97.9034 12.3961 98.8091 12.3961C100.201 12.3961 101.122 13.4601 101.122 15.2005L101.114 19.1755ZM105.185 19.1755H103.709V9.48508H105.185V19.1755ZM110.58 19.3275C108.64 19.3275 107.377 17.8759 107.377 15.9074C107.377 13.8553 108.663 12.3961 110.687 12.3961C112.604 12.3961 113.891 13.7793 113.891 15.8009C113.891 17.8759 112.559 19.3275 110.58 19.3275ZM110.634 13.4753C109.568 13.4753 108.884 14.4709 108.884 15.8694C108.884 17.2374 109.584 18.2331 110.618 18.2331C111.661 18.2331 112.353 17.169 112.353 15.839C112.353 14.4861 111.676 13.4753 110.634 13.4753ZM119.719 19.1755L119.612 18.4078H119.574C119.126 19.0235 118.464 19.3199 117.627 19.3199C116.432 19.3199 115.587 18.4839 115.587 17.3667C115.587 15.725 117.01 14.8814 119.475 14.8814V14.7598C119.475 13.8857 119.012 13.4449 118.099 13.4449C117.444 13.4449 116.865 13.6121 116.363 13.9389L116.066 12.9661C116.683 12.586 117.451 12.3885 118.35 12.3885C120.084 12.3885 120.967 13.3005 120.967 15.1321V17.5795C120.967 18.2483 120.997 18.7727 121.066 19.1679L119.719 19.1755ZM119.514 15.8694C117.87 15.8694 117.048 16.2646 117.048 17.207C117.048 17.9063 117.474 18.2483 118.06 18.2483C118.814 18.2483 119.514 17.6782 119.514 16.8954V15.8694ZM128.127 19.1755L128.059 18.1115H128.021C127.595 18.9171 126.879 19.3275 125.883 19.3275C124.277 19.3275 123.09 17.9215 123.09 15.9378C123.09 13.8629 124.323 12.3961 126.004 12.3961C126.895 12.3961 127.526 12.6925 127.876 13.3005H127.907V9.48508H129.382V17.3818C129.382 18.0202 129.398 18.6283 129.436 19.1679H128.127V19.1755ZM127.914 15.269C127.914 14.3417 127.298 13.5437 126.354 13.5437C125.258 13.5437 124.589 14.5165 124.589 15.877C124.589 17.2147 125.281 18.1343 126.324 18.1343C127.252 18.1343 127.914 17.3286 127.914 16.371V15.269ZM138.773 19.3275C136.833 19.3275 135.569 17.8759 135.569 15.9074C135.569 13.8553 136.855 12.3961 138.88 12.3961C140.797 12.3961 142.082 13.7793 142.082 15.8009C142.082 17.8759 140.759 19.3275 138.773 19.3275ZM138.826 13.4753C137.76 13.4753 137.075 14.4709 137.075 15.8694C137.075 17.2374 137.776 18.2331 138.811 18.2331C139.853 18.2331 140.546 17.169 140.546 15.839C140.553 14.4861 139.868 13.4753 138.826 13.4753ZM150.035 19.1755H148.558V15.3602C148.558 14.1821 148.109 13.5969 147.219 13.5969C146.344 13.5969 145.743 14.3493 145.743 15.2233V19.1755H144.266V14.4329C144.266 13.8477 144.252 13.2169 144.213 12.5328H145.514L145.583 13.5589H145.621C146.017 12.8521 146.824 12.3961 147.728 12.3961C149.121 12.3961 150.042 13.4601 150.042 15.2005V19.1755H150.035ZM159.972 13.6424H158.344V16.865C158.344 17.6858 158.625 18.0963 159.203 18.0963C159.462 18.0963 159.683 18.0659 159.858 18.0279L159.896 19.1451C159.607 19.2515 159.226 19.3123 158.747 19.3123C157.582 19.3123 156.883 18.6739 156.883 16.9866V13.6349H155.909V12.5252H156.883V11.3092L158.336 10.8684V12.5252H159.965L159.972 13.6424ZM167.802 19.1755H166.325V15.3906C166.325 14.2049 165.877 13.6045 164.987 13.6045C164.218 13.6045 163.511 14.1213 163.511 15.1778V19.1831H162.034V9.48508H163.511V13.4753H163.541C164.005 12.7533 164.682 12.3961 165.542 12.3961C166.95 12.3961 167.81 13.4904 167.81 15.2233L167.802 19.1755ZM175.814 16.2114H171.378C171.409 17.4655 172.238 18.1799 173.471 18.1799C174.125 18.1799 174.734 18.0735 175.266 17.8682L175.495 18.8943C174.863 19.1679 174.125 19.3047 173.265 19.3047C171.188 19.3047 169.956 17.9898 169.956 15.9606C169.956 13.9237 171.218 12.3961 173.098 12.3961C174.795 12.3961 175.86 13.6501 175.86 15.5502C175.875 15.763 175.86 15.991 175.814 16.2114ZM174.46 15.155C174.46 14.1289 173.943 13.4069 172.999 13.4069C172.147 13.4069 171.478 14.1441 171.386 15.155H174.46Z" fill="black"/>
</svg>
