<svg width="201" height="59" viewBox="0 0 201 59" fill="none" xmlns="http://www.w3.org/2000/svg">
<g clip-path="url(#clip0_1_2)">
<path d="M196.133 0.819443H4.10204C2.28964 0.819443 0.820408 2.28695 0.820408 4.09722V54.9028C0.820408 56.713 2.28964 58.1806 4.10204 58.1806H196.133C197.946 58.1806 199.415 56.713 199.415 54.9028V4.09722C199.415 2.28695 197.946 0.819443 196.133 0.819443Z" stroke="black" stroke-width="2"/>
<path d="M71.8813 15.451C71.8813 16.5801 71.5987 17.568 70.8923 18.2736C70.0445 19.1203 69.0555 19.5437 67.7838 19.5437C66.5122 19.5437 65.5231 19.1203 64.6754 18.2736C63.8277 17.4268 63.4038 16.439 63.4038 15.1688C63.4038 13.8987 63.8277 12.9108 64.6754 12.064C65.5231 11.2173 66.5122 10.7939 67.7838 10.7939C68.349 10.7939 68.9142 10.935 69.4793 11.2173C70.0445 11.4995 70.4684 11.7818 70.7509 12.2051L70.0445 12.9108C69.4793 12.2051 68.7728 11.9229 67.7838 11.9229C66.936 11.9229 66.0883 12.2051 65.5231 12.9108C64.8167 13.4753 64.5341 14.3221 64.5341 15.3099C64.5341 16.2978 64.8167 17.1446 65.5231 17.7091C66.2296 18.2736 66.936 18.6969 67.7838 18.6969C68.7728 18.6969 69.4793 18.4147 70.1858 17.7091C70.6097 17.2857 70.8923 16.7212 70.8923 16.0155H67.7838V15.0277H71.8813C71.8813 15.0277 71.8813 15.1688 71.8813 15.451Z" fill="black" stroke="black" stroke-width="0.2" stroke-miterlimit="10"/>
<path d="M78.3814 11.9229H74.5665V14.6043H78.0988V15.5922H74.5665V18.2736H78.3814V19.2614H73.4361V10.7939H78.3814V11.9229Z" fill="black" stroke="black" stroke-width="0.2" stroke-miterlimit="10"/>
<path d="M83.0442 19.2614H81.9135V11.7818H79.5115V10.7939H85.4455V11.7818H83.0442V19.2614Z" fill="black" stroke="black" stroke-width="0.2" stroke-miterlimit="10"/>
<path d="M89.5435 19.2614V10.7939H90.6732V19.2614H89.5435Z" fill="black" stroke="black" stroke-width="0.2" stroke-miterlimit="10"/>
<path d="M95.4775 19.2614H94.3478V11.7818H91.9456V10.7939H97.7385V11.7818H95.3364V19.2614H95.4775Z" fill="black" stroke="black" stroke-width="0.2" stroke-miterlimit="10"/>
<path d="M108.9 18.2736C108.053 19.1203 107.063 19.5437 105.792 19.5437C104.52 19.5437 103.531 19.1203 102.683 18.2736C101.836 17.4268 101.411 16.439 101.411 15.1688C101.411 13.8987 101.836 12.9108 102.683 12.064C103.531 11.2173 104.52 10.7939 105.792 10.7939C107.063 10.7939 108.053 11.2173 108.9 12.064C109.748 12.9108 110.172 13.8987 110.172 15.1688C110.172 16.2978 109.748 17.4268 108.9 18.2736ZM103.531 17.568C104.097 18.1325 104.944 18.5558 105.792 18.5558C106.64 18.5558 107.487 18.2736 108.053 17.568C108.618 17.0035 109.041 16.1567 109.041 15.1688C109.041 14.1809 108.759 13.3342 108.053 12.7696C107.487 12.2051 106.64 11.7818 105.792 11.7818C104.944 11.7818 104.097 12.064 103.531 12.7696C102.966 13.3342 102.542 14.1809 102.542 15.1688C102.542 16.0155 102.825 16.8624 103.531 17.568Z" fill="black" stroke="black" stroke-width="0.2" stroke-miterlimit="10"/>
<path d="M111.726 19.2614V10.7939H112.998L117.095 17.4268V15.7333V10.7939H118.226V19.2614H117.095L112.715 12.3463V14.0398V19.2614H111.726Z" fill="black" stroke="black" stroke-width="0.2" stroke-miterlimit="10"/>
<path d="M101.128 31.6805C97.7377 31.6805 95.0533 34.2208 95.0533 37.749C95.0533 41.136 97.7377 43.8174 101.128 43.8174C104.519 43.8174 107.204 41.2771 107.204 37.749C107.204 34.2208 104.519 31.6805 101.128 31.6805ZM101.128 41.2771C99.2915 41.2771 97.7377 39.7248 97.7377 37.6079C97.7377 35.491 99.2915 33.9386 101.128 33.9386C102.965 33.9386 104.519 35.3499 104.519 37.6079C104.519 39.8659 102.965 41.2771 101.128 41.2771ZM87.988 31.6805C84.5972 31.6805 81.9128 34.2208 81.9128 37.749C81.9128 41.136 84.5972 43.8174 87.988 43.8174C91.3795 43.8174 94.0639 41.2771 94.0639 37.749C94.0639 34.2208 91.3795 31.6805 87.988 31.6805ZM87.988 41.2771C86.1519 41.2771 84.5972 39.7248 84.5972 37.6079C84.5972 35.491 86.1519 33.9386 87.988 33.9386C89.8249 33.9386 91.3795 35.3499 91.3795 37.6079C91.3795 39.8659 89.8249 41.2771 87.988 41.2771ZM72.3049 33.5152V36.0555H78.3804C78.2391 37.4668 77.674 38.5958 76.9675 39.3014C76.1198 40.1481 74.7068 41.136 72.3049 41.136C68.49 41.136 65.6641 38.1723 65.6641 34.362C65.6641 30.5516 68.6312 27.5879 72.3049 27.5879C74.283 27.5879 75.8371 28.4346 76.9675 29.4226L78.8043 27.5879C77.25 26.1767 75.272 25.0476 72.4461 25.0476C67.3596 25.0476 62.9795 29.2815 62.9795 34.362C62.9795 39.4425 67.3596 43.6763 72.4461 43.6763C75.272 43.6763 77.2501 42.8296 78.9456 40.9949C80.6411 39.3014 81.2062 36.9022 81.2062 35.0676C81.2062 34.5031 81.2062 33.9386 81.0649 33.5152H72.3049ZM136.452 35.491C135.887 34.0797 134.473 31.6805 131.365 31.6805C128.257 31.6805 125.714 34.0797 125.714 37.749C125.714 41.136 128.257 43.8174 131.648 43.8174C134.332 43.8174 136.028 42.124 136.593 41.136L134.615 39.7248C133.909 40.7126 133.06 41.4183 131.648 41.4183C130.235 41.4183 129.387 40.8538 128.68 39.5837L136.734 36.1966L136.452 35.491ZM128.257 37.4668C128.257 35.2087 130.094 33.9386 131.365 33.9386C132.354 33.9386 133.343 34.5031 133.626 35.2087L128.257 37.4668ZM121.616 43.2529H124.3V25.6122H121.616V43.2529ZM117.377 32.9507C116.67 32.2451 115.541 31.5394 114.127 31.5394C111.16 31.5394 108.334 34.2208 108.334 37.6079C108.334 40.9949 111.019 43.5352 114.127 43.5352C115.541 43.5352 116.67 42.8296 117.236 42.124H117.377V42.9707C117.377 45.2287 116.106 46.4988 114.127 46.4988C112.573 46.4988 111.443 45.3699 111.16 44.3819L108.899 45.3699C109.606 46.9222 111.302 48.898 114.269 48.898C117.377 48.898 119.921 47.0633 119.921 42.6885V31.9628H117.377V32.9507ZM114.269 41.2771C112.432 41.2771 110.877 39.7248 110.877 37.6079C110.877 35.491 112.432 33.9386 114.269 33.9386C116.106 33.9386 117.519 35.491 117.519 37.6079C117.519 39.7248 116.106 41.2771 114.269 41.2771ZM148.744 25.6122H142.386V43.2529H145.07V36.62H148.744C151.711 36.62 154.537 34.5031 154.537 31.1161C154.537 27.729 151.711 25.6122 148.744 25.6122ZM148.885 34.2208H145.07V28.1524H148.885C150.863 28.1524 151.994 29.846 151.994 31.1161C151.853 32.5274 150.722 34.2208 148.885 34.2208ZM165.134 31.6805C163.155 31.6805 161.177 32.5274 160.471 34.362L162.873 35.3499C163.438 34.362 164.286 34.0797 165.275 34.0797C166.688 34.0797 167.96 34.9265 168.101 36.3378V36.4789C167.677 36.1966 166.547 35.7733 165.416 35.7733C162.873 35.7733 160.33 37.1845 160.33 39.7248C160.33 42.124 162.449 43.6763 164.71 43.6763C166.547 43.6763 167.394 42.8296 168.101 41.9828H168.242V43.3941H170.785V36.62C170.503 33.3741 168.101 31.6805 165.134 31.6805ZM164.851 41.2771C164.004 41.2771 162.732 40.8538 162.732 39.7248C162.732 38.3135 164.286 37.8901 165.558 37.8901C166.688 37.8901 167.253 38.1724 167.96 38.4546C167.677 40.1482 166.264 41.2771 164.851 41.2771ZM179.687 31.9628L176.72 39.5837H176.579L173.47 31.9628H170.644L175.307 42.6885L172.622 48.6158H175.307L182.513 31.9628H179.687ZM155.95 43.2529H158.634V25.6122H155.95V43.2529Z" fill="black"/>
<path d="M18.8967 46.7811C18.3315 46.4989 18.049 45.7933 18.049 45.0876C18.049 44.9464 18.049 44.6642 18.049 44.5231C18.049 34.0798 18.049 23.6364 18.049 13.3342C18.049 12.7696 18.1903 12.3463 18.3315 11.7818C18.4729 11.4995 18.7554 11.2173 19.0381 10.9351C25.1136 17.0035 31.0479 23.0719 36.9821 29.1403C30.9066 34.7853 24.9723 40.7127 18.8967 46.7811Z" fill="black"/>
<path d="M42.9161 22.9308C41.2206 24.6243 39.3838 26.3178 37.6883 28.1524C32.0366 22.3662 26.2436 16.5801 20.5919 10.7939C20.5919 10.7939 20.5919 10.6528 20.7332 10.6528C28.0804 14.7454 35.4276 18.8381 42.9161 22.9308Z" fill="black"/>
<path d="M20.5919 46.7811C26.2436 41.136 32.0366 35.491 37.6883 29.846C39.2425 31.3983 40.938 32.9508 42.7749 34.6442C35.4276 38.7369 28.0804 42.8296 20.7332 46.7811H20.5919Z" fill="black"/>
<path d="M43.7644 34.0797C41.9276 32.3862 40.2322 30.6927 38.3953 28.9992C40.2322 27.1646 42.069 25.3299 43.9057 23.4953C44.4709 23.7775 45.0361 24.0598 45.6012 24.4831C47.0141 25.3299 48.5684 26.0355 49.9813 26.8823C50.4052 27.0234 50.6878 27.3057 50.9703 27.729C51.5355 28.4346 51.5355 29.1403 50.9703 29.846C50.6878 30.1282 50.4052 30.4105 49.9813 30.5516C48.0032 31.8217 45.8839 32.9508 43.7644 34.0797Z" fill="black"/>
</g>
<defs>
<clipPath id="clip0_1_2">
<rect width="201" height="59" fill="white"/>
</clipPath>
</defs>
</svg>
